<svg width="65" height="86" viewBox="0 0 65 86" fill="none" xmlns="http://www.w3.org/2000/svg">
<path d="M37.1358 14.4281C27.77 11.5817 18.0069 16.1753 15.3695 24.6694C14.9292 26.0878 15.8392 27.6216 17.4031 28.0969C18.9671 28.5722 20.5905 27.8084 21.0308 26.39C22.7894 20.7262 29.3002 17.6655 35.5417 19.5624C37.1056 20.0377 38.729 19.2738 39.1695 17.8555C39.6098 16.4372 38.6998 14.9034 37.1358 14.4281ZM4.10388 70.9672C3.94693 71.4724 3.95849 72.0151 4.13759 72.5294L6.63848 79.7585C6.94176 80.6332 7.69277 81.3323 8.63925 81.62L22.5889 85.8594C23.5372 86.1479 24.5553 85.9867 25.3012 85.4302L31.4726 80.837C31.911 80.5102 32.2289 80.066 32.3871 79.5629L34.5471 72.6377L6.24794 64.0369L4.10388 70.9672ZM41.1211 1.59227C23.0265 -3.90704 5.85097 5.44161 1.2164 20.3681C-0.994003 27.4871 -0.100418 34.8665 3.15486 41.2868C5.15267 45.2283 7.7869 53.0194 7.8375 58.8919L7.83449 58.9018L16.3264 61.4827L16.3324 61.4633C16.5682 60.6971 16.6787 59.8986 16.653 59.0902C16.5513 55.9322 15.8425 47.4711 11.1177 38.1513C8.65116 33.2876 8.18922 27.9287 9.71718 22.9515C13.3503 11.1254 26.6504 5.62251 38.73 9.29376C51.2165 13.0886 58.5145 25.3889 54.9982 36.7133C53.4555 41.6823 49.9784 45.872 45.2072 48.5113C36.0659 53.566 30.669 60.1544 28.7679 62.7357C28.2781 63.3988 27.9055 64.1319 27.6628 64.9102L27.6578 64.9266L36.1496 67.507L36.1521 67.4992C39.5272 62.6656 46.1278 57.6815 50.0173 55.5311C56.3527 52.0235 61.2801 46.4129 63.4902 39.2941C68.3326 23.6985 58.3173 6.81842 41.1211 1.59227Z" fill="#FDD53D"/>
</svg>
