<svg width="74" height="18" viewBox="0 0 74 18" fill="none" xmlns="http://www.w3.org/2000/svg">
<path d="M4.71947 5.03162C5.91054 5.03162 6.80079 5.30762 7.39035 5.85962C7.97991 6.41162 8.27463 7.24575 8.27463 8.36202C8.27463 8.59512 8.26865 8.77291 8.25658 8.89562L7.9137 13.2932C7.88967 13.6367 7.7753 13.9004 7.57081 14.0844C7.37828 14.2684 7.11367 14.3604 6.77677 14.3604C6.464 14.3604 6.21135 14.2623 6.01882 14.066C5.83835 13.8575 5.76019 13.5937 5.78421 13.2748L5.80226 12.9252C5.56167 13.3913 5.22477 13.7532 4.79165 14.0108C4.35853 14.2684 3.8653 14.3972 3.31184 14.3972C2.73435 14.3972 2.211 14.2868 1.74179 14.066C1.28465 13.8329 0.92372 13.5201 0.659001 13.1276C0.394281 12.7228 0.261978 12.2689 0.261978 11.766C0.261978 11.0791 0.430375 10.5332 0.76728 10.1284C1.11614 9.71131 1.66961 9.41082 2.42756 9.22682C3.18551 9.03051 4.19612 8.93242 5.45937 8.93242H6.10905L6.12709 8.58282C6.17525 7.96949 6.06089 7.51562 5.78421 7.22122C5.50753 6.92682 5.06833 6.77962 4.46681 6.77962C3.75702 6.77962 2.94493 7.01882 2.03053 7.49722C1.87409 7.57082 1.72374 7.60762 1.57937 7.60762C1.36281 7.60762 1.18235 7.53402 1.03798 7.38682C0.893606 7.22735 0.82142 7.03722 0.82142 6.81642C0.82142 6.65695 0.86958 6.49749 0.965791 6.33802C1.062 6.16629 1.2004 6.02522 1.38086 5.91482C1.81398 5.64495 2.32526 5.43029 2.91481 5.27082C3.50437 5.11134 4.10588 5.03162 4.71947 5.03162ZM3.88933 12.7412C4.45475 12.7412 4.93005 12.5388 5.315 12.134C5.71202 11.7169 5.93456 11.1895 5.98272 10.5516L6.01882 10.1468H5.51351C4.74349 10.1468 4.136 10.1897 3.69081 10.2756C3.2577 10.3615 2.94493 10.5087 2.7524 10.7172C2.55986 10.9135 2.46365 11.1833 2.46365 11.5268C2.46365 11.8948 2.58998 12.1892 2.84263 12.41C3.10735 12.6308 3.45621 12.7412 3.88933 12.7412ZM15.8368 5.03162C16.8234 5.03162 17.5693 5.30762 18.0746 5.85962C18.5919 6.39934 18.8506 7.20282 18.8506 8.27002C18.8506 8.50312 18.8446 8.68091 18.8325 8.80362L18.4716 13.2564C18.4476 13.5999 18.3272 13.8697 18.1107 14.066C17.8941 14.2623 17.6174 14.3604 17.2805 14.3604C16.9317 14.3604 16.661 14.2623 16.4684 14.066C16.276 13.8697 16.1917 13.5999 16.2158 13.2564L16.5767 8.89562C16.673 7.53402 16.1436 6.85322 14.9886 6.85322C14.327 6.85322 13.8096 7.05562 13.4366 7.46042C13.0637 7.86522 12.8472 8.42949 12.7869 9.15322L12.444 13.2564C12.42 13.5999 12.2997 13.8697 12.0831 14.066C11.8666 14.2623 11.5899 14.3604 11.253 14.3604C10.9041 14.3604 10.6334 14.2623 10.4409 14.066C10.2604 13.8697 10.1763 13.5999 10.1882 13.2564L10.7657 6.11722C10.7778 5.79829 10.8981 5.54682 11.1267 5.36282C11.3553 5.16654 11.638 5.06842 11.9748 5.06842C12.2997 5.06842 12.5523 5.16042 12.7328 5.34442C12.9133 5.52842 12.9854 5.77375 12.9494 6.08042L12.9313 6.43002C13.2321 5.98842 13.6351 5.64495 14.1404 5.39962C14.6457 5.15429 15.2113 5.03162 15.8368 5.03162ZM23.8307 10.8276C23.8187 10.9012 23.8127 11.0116 23.8127 11.1588C23.8127 11.6495 23.921 12.0236 24.1375 12.2812C24.3661 12.5388 24.6849 12.6676 25.094 12.6676C25.2023 12.6676 25.3286 12.6615 25.473 12.6492C25.6294 12.6247 25.7557 12.6124 25.8519 12.6124C26.0203 12.6124 26.1527 12.6799 26.249 12.8148C26.3452 12.9497 26.3933 13.1337 26.3933 13.3668C26.3933 13.7471 26.261 14.0108 25.9963 14.158C25.7316 14.3052 25.2685 14.3788 24.6067 14.3788C23.6322 14.3788 22.8802 14.1151 22.3509 13.5876C21.8216 13.0601 21.5569 12.3119 21.5569 11.3428C21.5569 11.122 21.5628 10.9564 21.5749 10.846L21.8637 6.98202H20.9794C20.6786 6.98202 20.444 6.91455 20.2756 6.77962C20.1072 6.63242 20.0229 6.42389 20.0229 6.15402C20.0229 5.55295 20.3779 5.25242 21.0877 5.25242H22.008L22.1343 3.55962C22.1584 3.22842 22.2787 2.97082 22.4953 2.78682C22.7118 2.59055 22.9946 2.49242 23.3435 2.49242C23.6923 2.49242 23.957 2.59055 24.1375 2.78682C24.33 2.97082 24.4142 3.23454 24.3902 3.57802L24.2638 5.25242H25.7797C26.0806 5.25242 26.3091 5.32602 26.4655 5.47322C26.6339 5.60815 26.7182 5.80442 26.7182 6.06202C26.7182 6.67535 26.3693 6.98202 25.6715 6.98202H24.1195L23.8307 10.8276ZM28.4713 14.3604C28.1464 14.3604 27.8817 14.2684 27.6772 14.0844C27.4726 13.9004 27.3824 13.6244 27.4065 13.2564L27.984 6.13562C28.008 5.77989 28.1344 5.51615 28.363 5.34442C28.5915 5.16042 28.8683 5.06842 29.1931 5.06842C29.518 5.06842 29.7766 5.16042 29.9691 5.34442C30.1736 5.51615 30.2639 5.77989 30.2398 6.13562L29.6623 13.2564C29.6382 13.6244 29.5119 13.9004 29.2834 14.0844C29.0547 14.2684 28.784 14.3604 28.4713 14.3604ZM29.4097 3.43082C29.0006 3.43082 28.6758 3.32042 28.4352 3.09962C28.1945 2.86654 28.0742 2.56602 28.0742 2.19802C28.0742 1.83002 28.1945 1.53562 28.4352 1.31482C28.6758 1.09402 29.0006 0.983615 29.4097 0.983615C29.8067 0.983615 30.1255 1.09402 30.3662 1.31482C30.6188 1.53562 30.7451 1.83002 30.7451 2.19802C30.7451 2.56602 30.6248 2.86654 30.3842 3.09962C30.1435 3.32042 29.8187 3.43082 29.4097 3.43082ZM37.2763 2.98922C36.7107 3.02602 36.2897 3.20389 36.013 3.52282C35.7362 3.82949 35.5738 4.27722 35.5258 4.86602L35.4897 5.25242H37.0236C37.6492 5.25242 37.962 5.52229 37.962 6.06202C37.962 6.67535 37.6131 6.98202 36.9153 6.98202H35.3633L34.8761 13.2564C34.852 13.6121 34.7256 13.882 34.4971 14.066C34.2806 14.25 34.0099 14.342 33.685 14.342C33.3602 14.342 33.0955 14.25 32.891 14.066C32.6864 13.882 32.5961 13.6121 32.6203 13.2564L33.1075 6.98202H32.2233C31.9104 6.98202 31.6698 6.91455 31.5014 6.77962C31.3449 6.63242 31.2668 6.43002 31.2668 6.17242C31.2668 5.55909 31.6216 5.25242 32.3315 5.25242H33.2339L33.2519 5.12362C33.3481 3.93375 33.7211 3.01989 34.3708 2.38202C35.0324 1.73189 35.9288 1.37002 37.0597 1.29642L37.4928 1.25962C37.8778 1.23509 38.1725 1.27802 38.3771 1.38842C38.5937 1.49882 38.7019 1.70735 38.7019 2.01402C38.7019 2.57829 38.3891 2.89109 37.7635 2.95242L37.2763 2.98922ZM44.105 5.06842C44.3697 5.04389 44.5803 5.10522 44.7366 5.25242C44.9051 5.38735 44.9892 5.58975 44.9892 5.85962C44.9892 6.22762 44.9051 6.50362 44.7366 6.68762C44.5682 6.87162 44.2735 6.98815 43.8523 7.03722L43.3651 7.09242C42.5831 7.17829 42.0116 7.40522 41.6506 7.77322C41.2897 8.12895 41.0792 8.66872 41.019 9.39242L40.7122 13.2564C40.6882 13.6244 40.5619 13.9004 40.3332 14.0844C40.1047 14.2684 39.834 14.3604 39.5211 14.3604C39.1963 14.3604 38.9317 14.2684 38.7271 14.0844C38.5226 13.9004 38.4324 13.6244 38.4564 13.2564L39.0339 6.11722C39.058 5.77375 39.1844 5.51615 39.4129 5.34442C39.6536 5.16042 39.9243 5.06842 40.225 5.06842C40.5378 5.06842 40.7784 5.15429 40.9468 5.32602C41.1273 5.49775 41.2056 5.74922 41.1814 6.08042L41.1453 6.57722C41.4582 6.12335 41.8552 5.77375 42.3364 5.52842C42.8177 5.27082 43.341 5.12362 43.9064 5.08682L44.105 5.06842ZM49.6067 5.03162C50.7977 5.03162 51.688 5.30762 52.2775 5.85962C52.867 6.41162 53.1618 7.24575 53.1618 8.36202C53.1618 8.59512 53.1557 8.77291 53.1438 8.89562L52.8009 13.2932C52.7768 13.6367 52.6625 13.9004 52.458 14.0844C52.2655 14.2684 52.0008 14.3604 51.664 14.3604C51.3511 14.3604 51.0984 14.2623 50.906 14.066C50.7256 13.8575 50.6473 13.5937 50.6714 13.2748L50.6895 12.9252C50.4488 13.3913 50.112 13.7532 49.6788 14.0108C49.2457 14.2684 48.7524 14.3972 48.199 14.3972C47.6215 14.3972 47.0982 14.2868 46.629 14.066C46.1717 13.8329 45.8108 13.5201 45.5462 13.1276C45.2815 12.7228 45.1492 12.2689 45.1492 11.766C45.1492 11.0791 45.3176 10.5332 45.6545 10.1284C46.0033 9.71131 46.5568 9.41082 47.3148 9.22682C48.0727 9.03051 49.0833 8.93242 50.3466 8.93242H50.9962L51.0143 8.58282C51.0623 7.96949 50.9481 7.51562 50.6714 7.22122C50.3946 6.92682 49.9555 6.77962 49.354 6.77962C48.6441 6.77962 47.832 7.01882 46.9177 7.49722C46.7613 7.57082 46.6109 7.60762 46.4666 7.60762C46.25 7.60762 46.0695 7.53402 45.9252 7.38682C45.7808 7.22735 45.7086 7.03722 45.7086 6.81642C45.7086 6.65695 45.7567 6.49749 45.853 6.33802C45.9492 6.16629 46.0876 6.02522 46.2681 5.91482C46.7012 5.64495 47.2125 5.43029 47.802 5.27082C48.3915 5.11134 48.9931 5.03162 49.6067 5.03162ZM48.7765 12.7412C49.3419 12.7412 49.8171 12.5388 50.2022 12.134C50.5992 11.7169 50.8218 11.1895 50.8699 10.5516L50.906 10.1468H50.4007C49.6307 10.1468 49.0231 10.1897 48.578 10.2756C48.1449 10.3615 47.832 10.5087 47.6396 10.7172C47.4471 10.9135 47.3508 11.1833 47.3508 11.5268C47.3508 11.8948 47.4772 12.1892 47.7298 12.41C47.9944 12.6308 48.3434 12.7412 48.7765 12.7412ZM50.7255 3.83562C50.533 4.04414 50.3224 4.14842 50.0939 4.14842C49.9375 4.14842 49.8052 4.09934 49.6969 4.00122C49.6006 3.89082 49.5525 3.75589 49.5525 3.59642C49.5525 3.48602 49.5886 3.35722 49.6608 3.21002L51.2128 0.762815C51.3211 0.578815 51.4474 0.443886 51.5918 0.358015C51.7361 0.259886 51.8925 0.210815 52.061 0.210815C52.3016 0.210815 52.5122 0.296686 52.6926 0.468415C52.885 0.640145 52.9814 0.842545 52.9814 1.07562C52.9814 1.32094 52.8791 1.55402 52.6746 1.77482L50.7255 3.83562ZM63.2144 5.06842C63.5513 5.06842 63.8099 5.16654 63.9904 5.36282C64.1709 5.54682 64.2551 5.81055 64.2431 6.15402L63.6656 13.422C63.5573 14.8327 63.0941 15.8999 62.276 16.6236C61.4579 17.3473 60.3029 17.7092 58.8111 17.7092C58.1854 17.7092 57.5779 17.6356 56.9884 17.4884C56.3988 17.3412 55.8875 17.1327 55.4544 16.8628C55.1175 16.6543 54.9491 16.3783 54.9491 16.0348C54.9491 15.7895 55.0273 15.5748 55.1837 15.3908C55.3401 15.2068 55.5266 15.1148 55.7432 15.1148C55.8514 15.1148 55.9657 15.1455 56.086 15.2068C57.0004 15.6975 57.9268 15.9428 58.8652 15.9428C60.4654 15.9428 61.3195 15.1516 61.4278 13.5692L61.5 12.6676C61.2113 13.0847 60.8202 13.4097 60.327 13.6428C59.8457 13.8759 59.3043 13.9924 58.7028 13.9924C57.9448 13.9924 57.2771 13.8207 56.6996 13.4772C56.1342 13.1337 55.689 12.6492 55.3642 12.0236C55.0514 11.398 54.895 10.6681 54.895 9.83402C54.895 8.91402 55.0695 8.09215 55.4183 7.36842C55.7792 6.63242 56.2786 6.06202 56.9162 5.65722C57.5538 5.24015 58.2877 5.03162 59.1178 5.03162C59.7796 5.03162 60.351 5.16654 60.8323 5.43642C61.3255 5.69402 61.7045 6.06815 61.9692 6.55882L62.0053 6.13562C62.0293 5.80442 62.1497 5.54682 62.3662 5.36282C62.5949 5.16654 62.8775 5.06842 63.2144 5.06842ZM59.3886 12.2076C60.1225 12.2076 60.7 11.95 61.121 11.4348C61.5421 10.9073 61.7526 10.1959 61.7526 9.30042C61.7526 8.49082 61.5601 7.87135 61.1752 7.44202C60.7902 7.01269 60.2367 6.79802 59.5149 6.79802C58.7809 6.79802 58.2035 7.06175 57.7824 7.58922C57.3614 8.11669 57.1508 8.84042 57.1508 9.76042C57.1508 10.5455 57.3433 11.1527 57.7283 11.582C58.1253 11.9991 58.6788 12.2076 59.3886 12.2076ZM67.0668 14.3604C66.7419 14.3604 66.4772 14.2684 66.2727 14.0844C66.0682 13.9004 65.978 13.6244 66.002 13.2564L66.5795 6.13562C66.6035 5.77989 66.7299 5.51615 66.9585 5.34442C67.1871 5.16042 67.4638 5.06842 67.7886 5.06842C68.1135 5.06842 68.3721 5.16042 68.5646 5.34442C68.7691 5.51615 68.8594 5.77989 68.8353 6.13562L68.2578 13.2564C68.2338 13.6244 68.1075 13.9004 67.8789 14.0844C67.6502 14.2684 67.3795 14.3604 67.0668 14.3604ZM68.0052 3.43082C67.5961 3.43082 67.2713 3.32042 67.0307 3.09962C66.7901 2.86654 66.6698 2.56602 66.6698 2.19802C66.6698 1.83002 66.7901 1.53562 67.0307 1.31482C67.2713 1.09402 67.5961 0.983615 68.0052 0.983615C68.4022 0.983615 68.7211 1.09402 68.9617 1.31482C69.2143 1.53562 69.3406 1.83002 69.3406 2.19802C69.3406 2.56602 69.2203 2.86654 68.9797 3.09962C68.7391 3.32042 68.4143 3.43082 68.0052 3.43082ZM71.6489 14.3604C71.3241 14.3604 71.0593 14.2684 70.8549 14.0844C70.6504 13.9004 70.5601 13.6244 70.5842 13.2564L71.4504 2.25322C71.4744 1.89749 71.6007 1.63375 71.8294 1.46202C72.058 1.27802 72.3287 1.18602 72.6415 1.18602C72.9663 1.18602 73.231 1.27802 73.4355 1.46202C73.64 1.63375 73.7302 1.89749 73.7062 2.25322L72.84 13.2564C72.8159 13.6244 72.6896 13.9004 72.461 14.0844C72.2324 14.2684 71.9617 14.3604 71.6489 14.3604Z" fill="white"/>
</svg>
