<svg width="282" height="66" viewBox="0 0 282 66" fill="none" xmlns="http://www.w3.org/2000/svg">
<path d="M18.0197 18.0312C22.5752 18.0312 25.9802 19.0632 28.2351 21.1272C30.49 23.1912 31.6173 26.3101 31.6173 30.484C31.6173 31.3556 31.5944 32.0204 31.5482 32.4792L30.2368 48.9224C30.1449 50.2068 29.7075 51.1928 28.9254 51.8808C28.189 52.5688 27.1769 52.9128 25.8883 52.9128C24.6921 52.9128 23.7258 52.546 22.9894 51.812C22.2991 51.0324 22.0002 50.046 22.0921 48.8536L22.1611 47.5464C21.2409 49.2892 19.9523 50.6424 18.2958 51.6056C16.6392 52.5688 14.7527 53.0504 12.6359 53.0504C10.4271 53.0504 8.42546 52.6376 6.63086 51.812C4.88241 50.9404 3.50194 49.7708 2.48946 48.3032C1.47697 46.7896 0.970947 45.0924 0.970947 43.212C0.970947 40.6436 1.61502 38.6024 2.9036 37.0888C4.2379 35.5292 6.35476 34.4056 9.25374 33.7176C12.1527 32.9836 16.018 32.6168 20.8496 32.6168H23.3345L23.4035 31.3096C23.5877 29.0163 23.1503 27.3192 22.0921 26.2184C21.0338 25.1176 19.354 24.5672 17.0534 24.5672C14.3386 24.5672 11.2325 25.4616 7.73522 27.2504C7.13688 27.5256 6.56183 27.6632 6.00964 27.6632C5.18136 27.6632 4.49113 27.388 3.93895 26.8376C3.38676 26.2413 3.11067 25.5304 3.11067 24.7048C3.11067 24.1085 3.29487 23.5123 3.66285 22.916C4.03083 22.2739 4.56015 21.7464 5.25038 21.3336C6.90694 20.3245 8.86246 19.5219 11.1174 18.9256C13.3723 18.3293 15.6729 18.0312 18.0197 18.0312ZM14.8446 46.8584C17.0072 46.8584 18.8251 46.1016 20.2975 44.588C21.816 43.0284 22.6671 41.0564 22.8513 38.6712L22.9894 37.1576H21.0567C18.1116 37.1576 15.7881 37.318 14.0854 37.6392C12.4288 37.9604 11.2325 38.5108 10.4962 39.2904C9.75977 40.0244 9.39178 41.0332 9.39178 42.3176C9.39178 43.6936 9.87495 44.7944 10.8413 45.62C11.8538 46.4456 13.1881 46.8584 14.8446 46.8584ZM60.5406 18.0312C64.314 18.0312 67.1668 19.0632 69.0995 21.1272C71.0783 23.1453 72.0675 26.1496 72.0675 30.14C72.0675 31.0116 72.0446 31.6764 71.9985 32.1352L70.618 48.7848C70.5261 50.0692 70.0658 51.078 69.2375 51.812C68.4093 52.546 67.351 52.9128 66.0625 52.9128C64.7282 52.9128 63.6928 52.546 62.9564 51.812C62.2205 51.078 61.8982 50.0692 61.9901 48.7848L63.3706 32.4792C63.739 27.388 61.714 24.8424 57.2965 24.8424C54.7659 24.8424 52.7871 25.5992 51.3605 27.1128C49.9343 28.6264 49.106 30.7363 48.8757 33.4424L47.5642 48.7848C47.4723 50.0692 47.012 51.078 46.1838 51.812C45.3555 52.546 44.2973 52.9128 43.0087 52.9128C41.6744 52.9128 40.639 52.546 39.9026 51.812C39.2124 51.078 38.8906 50.0692 38.9363 48.7848L41.1451 22.0904C41.1912 20.8979 41.6515 19.9576 42.5255 19.2696C43.4 18.5357 44.4815 18.1688 45.7696 18.1688C47.012 18.1688 47.9784 18.5128 48.6686 19.2008C49.3588 19.8888 49.6349 20.8061 49.4969 21.9528L49.4279 23.26C50.5784 21.6088 52.1198 20.3245 54.0524 19.4072C55.9851 18.4899 58.1481 18.0312 60.5406 18.0312ZM91.1153 39.7032C91.0692 39.9784 91.0463 40.3912 91.0463 40.9416C91.0463 42.7764 91.4604 44.1752 92.2887 45.1384C93.1631 46.1016 94.3823 46.5832 95.9469 46.5832C96.3611 46.5832 96.8443 46.5604 97.3964 46.5144C97.9948 46.4228 98.4779 46.3768 98.8459 46.3768C99.49 46.3768 99.9965 46.6292 100.364 47.1336C100.732 47.638 100.917 48.326 100.917 49.1976C100.917 50.6196 100.411 51.6056 99.3981 52.156C98.3856 52.7064 96.6143 52.9816 94.0833 52.9816C90.3561 52.9816 87.4799 51.9956 85.4554 50.0232C83.4309 48.0508 82.4184 45.2532 82.4184 41.6296C82.4184 40.804 82.4413 40.1848 82.4874 39.772L83.5918 25.324H80.2096C79.0591 25.324 78.1618 25.0717 77.5177 24.5672C76.8737 24.0168 76.5514 23.2371 76.5514 22.228C76.5514 19.9805 77.909 18.8568 80.6238 18.8568H84.144L84.6271 12.5272C84.719 11.2888 85.1793 10.3256 86.0076 9.6376C86.8359 8.90372 87.9174 8.5368 89.2517 8.5368C90.586 8.5368 91.5985 8.90372 92.2887 9.6376C93.0251 10.3256 93.3469 11.3117 93.255 12.596L92.7719 18.8568H98.5698C99.7204 18.8568 100.594 19.132 101.193 19.6824C101.837 20.1869 102.159 20.9208 102.159 21.884C102.159 24.1773 100.825 25.324 98.1557 25.324H92.2197L91.1153 39.7032ZM108.864 52.9128C107.622 52.9128 106.609 52.5688 105.827 51.8808C105.045 51.1928 104.7 50.1608 104.792 48.7848L107.001 22.1592C107.092 20.8291 107.576 19.8429 108.45 19.2008C109.324 18.5128 110.383 18.1688 111.625 18.1688C112.868 18.1688 113.857 18.5128 114.593 19.2008C115.375 19.8429 115.72 20.8291 115.628 22.1592L113.42 48.7848C113.327 50.1608 112.844 51.1928 111.97 51.8808C111.096 52.5688 110.06 52.9128 108.864 52.9128ZM112.453 12.0456C110.889 12.0456 109.646 11.6328 108.726 10.8072C107.806 9.93572 107.346 8.812 107.346 7.436C107.346 6.06 107.806 4.9592 108.726 4.1336C109.646 3.308 110.889 2.8952 112.453 2.8952C113.972 2.8952 115.191 3.308 116.112 4.1336C117.078 4.9592 117.561 6.06 117.561 7.436C117.561 8.812 117.101 9.93572 116.181 10.8072C115.26 11.6328 114.018 12.0456 112.453 12.0456ZM142.541 10.3944C140.378 10.532 138.768 11.1971 137.709 12.3896C136.651 13.5363 136.03 15.2104 135.846 17.412L135.708 18.8568H141.575C143.967 18.8568 145.164 19.8659 145.164 21.884C145.164 24.1773 143.829 25.324 141.161 25.324H135.225L133.361 48.7848C133.269 50.1148 132.786 51.124 131.911 51.812C131.083 52.5 130.048 52.844 128.805 52.844C127.563 52.844 126.551 52.5 125.768 51.812C124.986 51.124 124.641 50.1148 124.733 48.7848L126.597 25.324H123.215C122.018 25.324 121.098 25.0717 120.454 24.5672C119.855 24.0168 119.556 23.26 119.556 22.2968C119.556 20.0035 120.914 18.8568 123.629 18.8568H127.08L127.149 18.3752C127.517 13.9261 128.944 10.5091 131.428 8.124C133.959 5.69308 137.387 4.34 141.713 4.0648L143.369 3.9272C144.842 3.83548 145.969 3.996 146.752 4.4088C147.58 4.8216 147.994 5.60132 147.994 6.748C147.994 8.85788 146.797 10.0275 144.405 10.2568L142.541 10.3944ZM168.659 18.1688C169.672 18.0771 170.477 18.3064 171.075 18.8568C171.719 19.3613 172.041 20.1181 172.041 21.1272C172.041 22.5032 171.719 23.5352 171.075 24.2232C170.431 24.9112 169.304 25.3469 167.693 25.5304L165.829 25.7368C162.838 26.0579 160.652 26.9064 159.272 28.2824C157.891 29.6125 157.086 31.6308 156.856 34.3368L155.683 48.7848C155.591 50.1608 155.108 51.1928 154.233 51.8808C153.359 52.5688 152.324 52.9128 151.127 52.9128C149.885 52.9128 148.873 52.5688 148.09 51.8808C147.308 51.1928 146.963 50.1608 147.055 48.7848L149.264 22.0904C149.356 20.8061 149.839 19.8429 150.713 19.2008C151.634 18.5128 152.669 18.1688 153.819 18.1688C155.016 18.1688 155.936 18.4899 156.58 19.132C157.27 19.7741 157.57 20.7144 157.477 21.9528L157.339 23.8104C158.536 22.1133 160.054 20.8061 161.895 19.8888C163.736 18.9256 165.737 18.3752 167.9 18.2376L168.659 18.1688ZM189.702 18.0312C194.257 18.0312 197.662 19.0632 199.917 21.1272C202.172 23.1912 203.299 26.3101 203.299 30.484C203.299 31.3556 203.276 32.0204 203.23 32.4792L201.919 48.9224C201.826 50.2068 201.389 51.1928 200.607 51.8808C199.871 52.5688 198.858 52.9128 197.57 52.9128C196.374 52.9128 195.407 52.546 194.671 51.812C193.981 51.0324 193.682 50.046 193.774 48.8536L193.843 47.5464C192.922 49.2892 191.634 50.6424 189.978 51.6056C188.321 52.5688 186.434 53.0504 184.318 53.0504C182.109 53.0504 180.107 52.6376 178.313 51.812C176.564 50.9404 175.183 49.7708 174.171 48.3032C173.159 46.7896 172.653 45.0924 172.653 43.212C172.653 40.6436 173.297 38.6024 174.586 37.0888C175.92 35.5292 178.037 34.4056 180.936 33.7176C183.835 32.9836 187.7 32.6168 192.532 32.6168H195.016L195.085 31.3096C195.269 29.0163 194.832 27.3192 193.774 26.2184C192.715 25.1176 191.036 24.5672 188.735 24.5672C186.02 24.5672 182.914 25.4616 179.417 27.2504C178.819 27.5256 178.244 27.6632 177.692 27.6632C176.863 27.6632 176.173 27.388 175.621 26.8376C175.069 26.2413 174.793 25.5304 174.793 24.7048C174.793 24.1085 174.976 23.5123 175.345 22.916C175.713 22.2739 176.242 21.7464 176.932 21.3336C178.589 20.3245 180.544 19.5219 182.799 18.9256C185.054 18.3293 187.355 18.0312 189.702 18.0312ZM186.527 46.8584C188.689 46.8584 190.507 46.1016 191.979 44.588C193.498 43.0284 194.349 41.0564 194.533 38.6712L194.671 37.1576H192.739C189.794 37.1576 187.47 37.318 185.767 37.6392C184.111 37.9604 182.914 38.5108 182.178 39.2904C181.442 40.0244 181.074 41.0332 181.074 42.3176C181.074 43.6936 181.557 44.7944 182.523 45.62C183.535 46.4456 184.87 46.8584 186.527 46.8584ZM193.981 13.5592C193.245 14.3389 192.439 14.7288 191.565 14.7288C190.967 14.7288 190.461 14.5453 190.047 14.1784C189.678 13.7656 189.495 13.2611 189.495 12.6648C189.495 12.252 189.633 11.7704 189.909 11.22L195.845 2.0696C196.259 1.3816 196.742 0.877081 197.294 0.556C197.846 0.189081 198.444 0.00559998 199.089 0.00559998C200.009 0.00559998 200.814 0.326681 201.505 0.9688C202.241 1.61092 202.609 2.36772 202.609 3.2392C202.609 4.15652 202.218 5.028 201.436 5.8536L193.981 13.5592ZM241.748 18.1688C243.036 18.1688 244.026 18.5357 244.716 19.2696C245.406 19.9576 245.728 20.9437 245.682 22.228L243.473 49.404C243.059 54.6788 241.287 58.6692 238.159 61.3752C235.03 64.0812 230.612 65.4344 224.906 65.4344C222.513 65.4344 220.19 65.1592 217.935 64.6088C215.68 64.0584 213.724 63.2788 212.068 62.2696C210.779 61.49 210.135 60.458 210.135 59.1736C210.135 58.2564 210.434 57.4536 211.032 56.7656C211.631 56.0776 212.344 55.7336 213.172 55.7336C213.586 55.7336 214.023 55.8484 214.484 56.0776C217.981 57.9124 221.524 58.8296 225.113 58.8296C231.233 58.8296 234.5 55.8712 234.914 49.9544L235.191 46.5832C234.086 48.1428 232.591 49.358 230.704 50.2296C228.863 51.1012 226.793 51.5368 224.492 51.5368C221.593 51.5368 219.039 50.8948 216.83 49.6104C214.668 48.326 212.965 46.5144 211.723 44.1752C210.526 41.836 209.928 39.1068 209.928 35.988C209.928 32.548 210.595 29.4749 211.93 26.7688C213.31 24.0168 215.22 21.884 217.659 20.3704C220.097 18.8109 222.904 18.0312 226.079 18.0312C228.61 18.0312 230.796 18.5357 232.637 19.5448C234.523 20.508 235.973 21.9069 236.985 23.7416L237.123 22.1592C237.215 20.9208 237.675 19.9576 238.504 19.2696C239.378 18.5357 240.459 18.1688 241.748 18.1688ZM227.115 44.8632C229.922 44.8632 232.131 43.9 233.741 41.9736C235.351 40.0012 236.157 37.3412 236.157 33.9928C236.157 30.9656 235.421 28.6493 233.948 27.044C232.476 25.4387 230.359 24.636 227.598 24.636C224.791 24.636 222.582 25.6221 220.972 27.5944C219.361 29.5667 218.556 32.2728 218.556 35.7128C218.556 38.6484 219.292 40.9188 220.765 42.524C222.283 44.0836 224.4 44.8632 227.115 44.8632ZM256.482 52.9128C255.24 52.9128 254.227 52.5688 253.445 51.8808C252.663 51.1928 252.318 50.1608 252.41 48.7848L254.618 22.1592C254.71 20.8291 255.194 19.8429 256.068 19.2008C256.942 18.5128 258.001 18.1688 259.243 18.1688C260.485 18.1688 261.475 18.5128 262.211 19.2008C262.993 19.8429 263.338 20.8291 263.246 22.1592L261.038 48.7848C260.946 50.1608 260.463 51.1928 259.588 51.8808C258.714 52.5688 257.678 52.9128 256.482 52.9128ZM260.071 12.0456C258.507 12.0456 257.264 11.6328 256.344 10.8072C255.424 9.93572 254.964 8.812 254.964 7.436C254.964 6.06 255.424 4.9592 256.344 4.1336C257.264 3.308 258.507 2.8952 260.071 2.8952C261.59 2.8952 262.809 3.308 263.73 4.1336C264.696 4.9592 265.179 6.06 265.179 7.436C265.179 8.812 264.719 9.93572 263.799 10.8072C262.878 11.6328 261.636 12.0456 260.071 12.0456ZM274.008 52.9128C272.765 52.9128 271.753 52.5688 270.971 51.8808C270.188 51.1928 269.843 50.1608 269.935 48.7848L273.248 7.6424C273.34 6.31228 273.823 5.32612 274.698 4.684C275.572 3.996 276.608 3.652 277.804 3.652C279.046 3.652 280.059 3.996 280.841 4.684C281.623 5.32612 281.968 6.31228 281.876 7.6424L278.563 48.7848C278.471 50.1608 277.988 51.1928 277.114 51.8808C276.239 52.5688 275.204 52.9128 274.008 52.9128Z" fill="#314399"/>
</svg>
