<svg width="17" height="23" viewBox="0 0 17 23" fill="none" xmlns="http://www.w3.org/2000/svg">
<path d="M9.70937 3.85868C7.26063 3.09742 4.70801 4.32595 4.01845 6.59764C3.90331 6.97697 4.14125 7.38717 4.55015 7.51428C4.95905 7.64139 5.38349 7.43712 5.49863 7.05778C5.95841 5.54305 7.66069 4.7245 9.29257 5.2318C9.70147 5.35893 10.1259 5.15463 10.2411 4.77532C10.3562 4.39599 10.1183 3.9858 9.70937 3.85868ZM1.07298 18.9796C1.03195 19.1147 1.03497 19.2599 1.0818 19.3974L1.73567 21.3308C1.81496 21.5647 2.01132 21.7517 2.25878 21.8286L5.906 22.9624C6.15393 23.0396 6.42013 22.9964 6.61514 22.8476L8.22869 21.6192C8.34331 21.5318 8.42644 21.413 8.4678 21.2785L9.03254 19.4264L1.63356 17.1261L1.07298 18.9796ZM10.7513 0.425839C6.02041 -1.04491 1.52977 1.45531 0.318034 5.44727C-0.259888 7.3512 -0.0262549 9.32476 0.824857 11.0418C1.34719 12.0959 2.03593 14.1796 2.04916 15.7502L2.04837 15.7528L4.26863 16.443L4.2702 16.4379C4.33185 16.2329 4.36075 16.0194 4.35401 15.8032C4.32743 14.9586 4.14211 12.6958 2.9068 10.2032C2.26189 8.90249 2.14112 7.46931 2.54061 6.13821C3.49052 2.97541 6.96788 1.50369 10.1262 2.48554C13.3909 3.50045 15.2989 6.79005 14.3796 9.81866C13.9762 11.1476 13.0671 12.2681 11.8197 12.974C9.42963 14.3258 8.01857 16.0878 7.52153 16.7782C7.39348 16.9555 7.29604 17.1516 7.23259 17.3597L7.23128 17.3641L9.45152 18.0542L9.45218 18.0521C10.3346 16.7594 12.0604 15.4264 13.0773 14.8513C14.7337 13.9133 16.022 12.4128 16.5999 10.5089C17.8659 6.33798 15.2474 1.82353 10.7513 0.425839Z" fill="white"/>
</svg>
