<svg width="20" height="23" viewBox="0 0 20 23" fill="none" xmlns="http://www.w3.org/2000/svg">
<path d="M10 11.6667C13.1562 11.6667 15.7143 9.05534 15.7143 5.83333C15.7143 2.61133 13.1562 0 10 0C6.84375 0 4.28571 2.61133 4.28571 5.83333C4.28571 9.05534 6.84375 11.6667 10 11.6667ZM14 13.125H13.2545C12.2634 13.5898 11.1607 13.8542 10 13.8542C8.83929 13.8542 7.74107 13.5898 6.74554 13.125H6C2.6875 13.125 0 15.8685 0 19.25V21.1458C0 22.3535 0.959821 23.3333 2.14286 23.3333H17.8571C19.0402 23.3333 20 22.3535 20 21.1458V19.25C20 15.8685 17.3125 13.125 14 13.125Z" fill="#314399" fill-opacity="0.5"/>
</svg>
